<svg viewBox="0 0 16.876 15.063" height="16" width="16" xmlns="http://www.w3.org/2000/svg"><path d="M12.709 15.063q-.771 0-1.313-.521t-.562-1.271v-.667H9.376q-.792 0-1.344-.552T7.48 10.73V4.313H6.021v.625q0 .771-.552 1.292-.552.52-1.323.52h-2.27q-.771 0-1.323-.552Q0 5.646 0 4.875v-3Q0 1.104.553.552 1.105 0 1.876 0h2.27q.771 0 1.323.521t.552 1.271v.646h4.813v-.646q0-.75.552-1.271T12.709 0H15q.771 0 1.323.552.553.552.553 1.323v3q0 .771-.553 1.323-.552.552-1.323.552h-2.291q-.771 0-1.323-.52-.552-.521-.552-1.292v-.625H9.376v6.417h1.458v-.626q0-.77.552-1.291t1.323-.521H15q.771 0 1.323.552.553.552.553 1.323v3.021q0 .771-.553 1.323-.552.552-1.323.552z" style="fill:#c689ff;fill-opacity:1"/></svg>